<svg width="1200" height="630" viewBox="0 0 1200 630" xmlns="http://www.w3.org/2000/svg" role="img" aria-label="DUCP social card">
  <defs>
    <linearGradient id="cbg" x1="0" y1="0" x2="1" y2="1">
      <stop offset="0" stop-color="#13304A"/>
      <stop offset="1" stop-color="#1F5288"/>
    </linearGradient>
    <linearGradient id="cinner" x1="0" y1="0" x2="0" y2="1">
      <stop offset="0" stop-color="#86C7FF"/>
      <stop offset="1" stop-color="#43D58C"/>
    </linearGradient>
  </defs>
  <rect x="0" y="0" width="1200" height="630" fill="url(#cbg)"/>

  <!-- icon mark (node version), top-left -->
  <g transform="translate(64,52) scale(0.30)">
    <rect x="0" y="0" width="512" height="512" rx="116" fill="#0F263B"/>
    <path d="M 168 156 L 168 268 A 88 88 0 0 0 344 268 L 344 156" fill="none" stroke="#FFFFFF" stroke-width="34" stroke-linecap="round" stroke-linejoin="round"/>
    <path d="M 212 156 L 212 268 A 44 44 0 0 0 300 268 L 300 156" fill="none" stroke="url(#cinner)" stroke-width="30" stroke-linecap="round" stroke-linejoin="round"/>
    <circle cx="344" cy="124" r="12" fill="#43D58C"/>
  </g>
  <text x="232" y="142" font-family="Arial, Helvetica, sans-serif" font-size="92" font-weight="700" letter-spacing="5" fill="#FFFFFF">DUCP</text>
  <text x="236" y="190" font-family="Arial, Helvetica, sans-serif" font-size="26" font-weight="400" letter-spacing="2" fill="#9DB8D0">Decentralized Universal Compute Protocol</text>

  <!-- headline -->
  <text x="64" y="372" font-family="Arial, Helvetica, sans-serif" font-size="56" font-weight="700" fill="#FFFFFF">Compute as a democratized,</text>
  <text x="64" y="442" font-family="Arial, Helvetica, sans-serif" font-size="56" font-weight="700" fill="#FFFFFF">sustainable abundance.</text>
  <rect x="66" y="474" width="132" height="7" rx="3.5" fill="#43D58C"/>

  <!-- footer -->
  <text x="64" y="566" font-family="Arial, Helvetica, sans-serif" font-size="27" font-weight="700" letter-spacing="1" fill="#86C7FF">Request for Comments · v0.2.0 · June 2026</text>
  <text x="64" y="600" font-family="Arial, Helvetica, sans-serif" font-size="25" font-weight="400" letter-spacing="1" fill="#9DB8D0">github.com/ducp-protocol</text>
</svg>
